<?xml version="1.0" encoding="iso-8859-1"?>
<!-- Generator: Adobe Illustrator 19.0.0, SVG Export Plug-In . SVG Version: 6.00 Build 0)  -->
<svg version="1.1" id="Layer_1" xmlns="http://www.w3.org/2000/svg" xmlns:xlink="http://www.w3.org/1999/xlink" x="0px" y="0px"
	 viewBox="0 0 390.266 390.266" style="enable-background:new 0 0 390.266 390.266;" xml:space="preserve">
<path style="fill:#FFFFFF;" d="M124.517,97.491c-7.564,30.901-42.279,164.202-91.022,231.434h97.034
	c47.709-52.558,95.418-209.196,111.127-262.853L124.517,97.491z"/>
<path style="fill:#FFC10D;" d="M73.576,307.204c36.331-65.034,61.22-152.307,72.081-191.871l63.935-16.808
	c-22.756,73.244-57.406,167.499-88.889,208.679H73.576L73.576,307.204z"/>
<g>
	<path style="fill:#FFFFFF;" d="M356.469,328.925c-42.279-59.087-80.743-178.877-99.168-238.998
		c-17.907,60.186-56.889,179.911-99.168,238.998h35.232c21.657-26.57,45.511-103.499,53.139-131.685
		c2.715-10.279,17.325-11.378,21.139,0c7.564,28.703,31.418,105.697,53.139,131.685H356.469z"/>
	<path style="fill:#FFFFFF;" d="M219.354,328.925h75.895c-15.192-25.471-28.703-63.418-37.948-91.022
		C248.638,265.507,234.546,303.454,219.354,328.925z"/>
</g>
<path style="fill:#56ACE0;" d="M295.249,328.925h-75.895c15.192-25.471,28.703-63.418,37.947-91.022
	C265.964,265.507,280.057,303.972,295.249,328.925z"/>
<path style="fill:#194F82;" d="M386.271,331.059C328.283,270.937,268.679,49.782,267.58,47.648
	c-1.616-5.43-7.046-9.244-13.576-7.564L112.558,78.549c-3.814,1.099-7.046,4.331-7.564,8.145
	c-0.517,1.552-43.895,186.958-101.883,245.463c-6.529,6.529-2.198,18.424,7.564,18.424h368.549l0,0
	C390.085,350.582,393.899,337.588,386.271,331.059z M34.012,328.925c48.808-67.232,83.459-200.016,91.022-231.434l117.075-31.418
	c-15.709,53.657-63.418,210.295-111.127,262.853H34.012z M219.354,328.925c15.192-25.471,28.703-63.418,37.947-91.022
	c8.663,27.669,22.756,66.133,37.947,91.022H219.354z M321.236,328.925c-21.657-26.57-45.511-103.499-53.139-131.685
	c-3.814-11.378-18.424-10.279-21.139,0c-7.564,28.703-31.418,105.697-53.139,131.685h-35.232
	c42.279-59.087,81.325-178.877,99.168-238.998c17.907,60.186,56.889,179.911,99.168,238.998H321.236z"/>
<g>
</g>
<g>
</g>
<g>
</g>
<g>
</g>
<g>
</g>
<g>
</g>
<g>
</g>
<g>
</g>
<g>
</g>
<g>
</g>
<g>
</g>
<g>
</g>
<g>
</g>
<g>
</g>
<g>
</g>
</svg>
